<svg xmlns="http://www.w3.org/2000/svg" version="1.1" xmlns:xlink="http://www.w3.org/1999/xlink" width="512" height="512" x="0" y="0" viewBox="0 0 512 512" style="enable-background:new 0 0 512 512" xml:space="preserve" class=""><g><circle cx="256" cy="256" r="256" fill="#ca84e7" opacity="1" data-original="#f44b9d" class=""></circle><path fill="#a559c4" d="M512 256c0-22.67-2.947-44.652-8.478-65.584l-37.142-37.142h-38.91l-37.741 19.431 52.274 52.274-11.656 15.077L273.626 83.334l-13.732 108.143L49.788 256 182.06 388.273l-34.622 19.679L251.446 511.96c1.515.027 3.033.04 4.554.04 141.385 0 256-114.615 256-256z" opacity="1" data-original="#c83088" class=""></path><path fill="#ff8f29" d="M421.125 131.926h-31.396v40.779h31.396c9.887 0 17.931 8.044 17.931 17.931 0 14.216-5.328 26.418-15.41 35.286-10.213 8.984-24.578 13.932-40.448 13.932h-45.136v40.779h45.136c25.79 0 49.721-8.557 67.382-24.093 18.865-16.596 29.255-40.001 29.255-65.904 0-32.373-26.336-58.71-58.71-58.71z" opacity="1" data-original="#ff8f29" class=""></path><path fill="#ffec66" d="M301.118 163.691h-84.964V150.34c0-23.014 18.657-41.671 41.671-41.671h1.622c23.014 0 41.671 18.657 41.671 41.671z" opacity="1" data-original="#ffec66" class=""></path><path fill="#ffc639" d="M301.118 163.691V150.34c0-23.014-18.657-41.671-41.671-41.671h-.811v55.022zM301.888 315.047h-86.504l-20.916 55.877h128.336z" opacity="1" data-original="#ffc639" class=""></path><path fill="#ff8f29" d="m322.804 370.924-20.916-55.877h-43.252v55.877z" opacity="1" data-original="#ff8f29" class=""></path><path fill="#ffc639" d="M209.58 161.572h98.112c28.675 0 51.92 23.246 51.92 51.92v1.011H157.66v-1.011c0-28.675 23.245-51.92 51.92-51.92z" opacity="1" data-original="#ffc639" class=""></path><path fill="#ff8f29" d="M359.612 214.503v-1.011c0-28.675-23.245-51.92-51.92-51.92h-49.056v52.931z" opacity="1" data-original="#ff8f29" class=""></path><path fill="#ffec66" d="M359.612 212.554V237.1c0 49.363-40.016 89.379-89.379 89.379h-41.54c-34.195 0-64.87-15.066-85.752-38.921-11.684-13.348-28.896-20.545-46.635-20.545H82.622c-30.076 0-54.458-24.382-54.458-54.458h331.448z" opacity="1" data-original="#ffec66" class=""></path><path fill="#ffc639" d="M270.233 326.478c49.363 0 89.379-40.016 89.379-89.379v-24.546H258.636v113.924h11.597z" opacity="1" data-original="#ffc639" class=""></path><path fill="#ffec66" d="M369.833 407.952H147.439v-.811c0-23.014 18.657-41.671 41.671-41.671h139.053c23.014 0 41.671 18.657 41.671 41.671v.811z" opacity="1" data-original="#ffec66" class=""></path><path fill="#ffc639" d="M369.833 407.141c0-23.014-18.657-41.671-41.671-41.671h-69.527v42.482h111.197v-.811z" opacity="1" data-original="#ffc639" class=""></path><circle cx="258.636" cy="99.41" r="21.984" fill="#ffc639" opacity="1" data-original="#ffc639" class=""></circle><path fill="#ff8f29" d="M280.62 99.41c0-12.141-9.843-21.984-21.984-21.984v43.968c12.141 0 21.984-9.843 21.984-21.984z" opacity="1" data-original="#ff8f29" class=""></path></g></svg>